<svg id="Camada_1" data-name="Camada 1" xmlns="http://www.w3.org/2000/svg" viewBox="0 0 1252.98 389.33"><defs><style>.cls-1,.cls-2,.cls-3,.cls-4{fill:none;stroke-miterlimit:10;stroke-width:15px;}.cls-1{stroke:#c34b45;}.cls-2{stroke:#000;}.cls-3{stroke:#63b99c;}.cls-4{stroke:#efb050;}</style></defs><path class="cls-1" d="M417.07,536.92c0,101.39-82.2,183.58-183.58,183.58S49.9,638.31,49.9,536.92s82.2-183.59,183.59-183.59" transform="translate(-42.4 -345.83)"/><line class="cls-1" x1="191.08" y1="191.08" x2="382.02" y2="191.08"/><line class="cls-2" x1="463.45" y1="7.5" x2="463.45" y2="374.66"/><path class="cls-3" d="M682.49,353.33c0,101.39-82.2,183.59-183.59,183.59" transform="translate(-42.4 -345.83)"/><path class="cls-4" d="M499.12,536.92A183.58,183.58,0,0,1,682.7,720.5" transform="translate(-42.4 -345.83)"/><circle class="cls-2" cx="778.21" cy="276.02" r="105.81"/><line class="cls-2" x1="884.02" y1="276.02" x2="884.02" y2="381.83"/><line class="cls-2" x1="936.26" y1="384.76" x2="936.26" y2="72.53"/><line class="cls-2" x1="1005.54" y1="146.89" x2="866.52" y2="146.89"/><path class="cls-2" d="M1076.27,734.52a105.81,105.81,0,1,1,211.61,0" transform="translate(-42.4 -345.83)"/><line class="cls-2" x1="1033.86" y1="388.55" x2="1033.86" y2="76.33"/></svg>